<?xml version="1.0" encoding="UTF-8"?>
<svg width="26px" height="27px" viewBox="0 0 26 27" version="1.1" xmlns="http://www.w3.org/2000/svg" xmlns:xlink="http://www.w3.org/1999/xlink">
    <!-- Generator: Sketch 55.2 (78181) - https://sketchapp.com -->
    <title>Fill 3</title>
    <desc>Created with Sketch.</desc>
    <g id="WIREFRAME" stroke="none" stroke-width="1" fill="none" fill-rule="evenodd">
        <g id="Desktop-HD-Copy" transform="translate(-214.000000, -8341.000000)" fill="#C9A899">
            <g id="Group-4-Copy-2" transform="translate(-2.000000, 8297.000000)">
                <g id="Group-4-Copy">
                    <g id="Group-Copy-3" transform="translate(216.000000, 44.000000)">
                        <path d="M24.9169375,0.352941176 L1.083875,0.352941176 C0.4850625,0.352941176 0,0.838003676 0,1.43600368 L0,25.2698787 C0,25.8678787 0.4850625,26.3529412 1.083875,26.3529412 L13.8125,26.3529412 L13.8125,16.6029412 L10.5625,16.6029412 L10.5625,12.5404412 L13.8125,12.5404412 L13.8125,9.29044118 C13.8125,5.93237868 15.9388125,4.27975368 18.9345,4.27975368 C20.369375,4.27975368 21.60275,4.38700368 21.961875,4.43412868 L21.961875,7.94412868 L19.8843125,7.94494118 C18.25525,7.94494118 17.875,8.71925368 17.875,9.85512868 L17.875,12.5404412 L21.9375,12.5404412 L21.125,16.6029412 L17.875,16.6029412 L17.94,26.3529412 L24.9169375,26.3529412 C25.5149375,26.3529412 26,25.8678787 26,25.2698787 L26,1.43600368 C26,0.838003676 25.5149375,0.352941176 24.9169375,0.352941176" id="Fill-3"></path>
                    </g>
                </g>
            </g>
        </g>
    </g>
</svg>