<?xml version="1.0" encoding="UTF-8"?>
<svg width="26px" height="27px" viewBox="0 0 26 27" version="1.1" xmlns="http://www.w3.org/2000/svg" xmlns:xlink="http://www.w3.org/1999/xlink">
    <!-- Generator: Sketch 55.2 (78181) - https://sketchapp.com -->
    <title>Fill 23</title>
    <desc>Created with Sketch.</desc>
    <g id="WIREFRAME" stroke="none" stroke-width="1" fill="none" fill-rule="evenodd">
        <g id="Desktop-HD-Copy" transform="translate(-348.000000, -8341.000000)" fill="#C9A899">
            <g id="Group-4-Copy-2" transform="translate(-2.000000, 8297.000000)">
                <g id="Group-4-Copy">
                    <g id="Group-Copy-3" transform="translate(216.000000, 44.000000)">
                        <path d="M156.75,23.9154412 L137.25,23.9154412 C136.8015,23.9154412 136.4375,23.5514412 136.4375,23.1029412 L136.4375,10.9154412 L139.6875,10.9154412 C139.264187,11.5248162 139.121187,12.6615037 139.121187,13.3830037 C139.121187,17.7339412 142.669375,21.2740037 147.030062,21.2740037 C151.391562,21.2740037 154.93975,17.7339412 154.93975,13.3830037 C154.93975,12.6615037 154.837375,11.5418787 154.3125,10.9154412 L157.5625,10.9154412 L157.5625,23.1029412 C157.5625,23.5514412 157.1985,23.9154412 156.75,23.9154412 M147.030062,8.39506618 C149.79175,8.39506618 152.030187,10.6286287 152.030187,13.3830037 C152.030187,16.1381912 149.79175,18.3717537 147.030062,18.3717537 C144.269188,18.3717537 142.03075,16.1381912 142.03075,13.3830037 C142.03075,10.6286287 144.269188,8.39506618 147.030062,8.39506618 M153.5,3.60294118 L155.9375,3.60294118 C156.386,3.60294118 156.75,3.96694118 156.75,4.41544118 L156.75,6.85294118 C156.75,7.30144118 156.386,7.66544118 155.9375,7.66544118 L153.5,7.66544118 C153.0515,7.66544118 152.6875,7.30144118 152.6875,6.85294118 L152.6875,4.41544118 C152.6875,3.96694118 153.0515,3.60294118 153.5,3.60294118 M156.90925,0.352941176 L137.09075,0.352941176 C135.383687,0.352941176 134,1.73337868 134,3.43637868 L134,23.2695037 C134,24.9725037 135.383687,26.3529412 137.09075,26.3529412 L156.90925,26.3529412 C158.616313,26.3529412 160,24.9725037 160,23.2695037 L160,3.43637868 C160,1.73337868 158.616313,0.352941176 156.90925,0.352941176" id="Fill-23"></path>
                    </g>
                </g>
            </g>
        </g>
    </g>
</svg>