<?xml version="1.0" encoding="UTF-8"?>
<svg width="26px" height="24px" viewBox="0 0 26 24" version="1.1" xmlns="http://www.w3.org/2000/svg" xmlns:xlink="http://www.w3.org/1999/xlink">
    <!-- Generator: Sketch 55.2 (78181) - https://sketchapp.com -->
    <title>Fill 1</title>
    <desc>Created with Sketch.</desc>
    <g id="WIREFRAME" stroke="none" stroke-width="1" fill="none" fill-rule="evenodd">
        <g id="Desktop-HD-Copy" transform="translate(-259.000000, -8342.000000)" fill="#C9A899">
            <g id="Group-4-Copy-2" transform="translate(-2.000000, 8297.000000)">
                <g id="Group-4-Copy">
                    <g id="Group-Copy-3" transform="translate(216.000000, 44.000000)">
                        <path d="M71,4.07526381 C70.0436875,4.53694425 69.0150625,4.84915344 67.9360625,4.98978025 C69.0378125,4.27072622 69.883625,3.13332956 70.28175,1.77747492 C69.2515,2.44257778 68.109125,2.92548492 66.8944375,3.18639628 C65.9210625,2.05784408 64.5349375,1.35294118 63.0009375,1.35294118 C60.0548125,1.35294118 57.666875,3.95232591 57.666875,7.15932456 C57.666875,7.61392945 57.714,8.05703654 57.805,8.48245473 C53.3711875,8.24011672 49.441125,5.92817671 46.81025,2.41515998 C46.3511875,3.27307192 46.0879375,4.27072622 46.0879375,5.33471391 C46.0879375,7.34859586 47.029625,9.12633091 48.4604375,10.167323 C47.5861875,10.1372519 46.7639375,9.87634052 46.044875,9.44119344 C46.0440625,9.4659579 46.0440625,9.48983793 46.0440625,9.5146024 C46.0440625,12.3280229 47.88275,14.6744563 50.3235,15.2077768 C49.8758125,15.3404436 49.4045625,15.4111992 48.917875,15.4111992 C48.5741875,15.4111992 48.24025,15.3749369 47.9144375,15.3077191 C48.592875,17.6143524 50.5631875,19.2930296 52.8975,19.3399052 C51.0718125,20.8974134 48.771625,21.8251965 46.272375,21.8251965 C45.84175,21.8251965 45.417625,21.7977787 45,21.744712 C47.3603125,23.3915491 50.16425,24.3529412 53.177,24.3529412 C62.98875,24.3529412 68.3536875,15.5049504 68.3536875,7.83238744 C68.3536875,7.58032053 68.3488125,7.33002251 68.33825,7.08060893 C69.3806875,6.26249703 70.285,5.24007827 71,4.07526381" id="Fill-1"></path>
                    </g>
                </g>
            </g>
        </g>
    </g>
</svg>