<?xml version="1.0" encoding="UTF-8"?>
<svg width="26px" height="20px" viewBox="0 0 26 20" version="1.1" xmlns="http://www.w3.org/2000/svg" xmlns:xlink="http://www.w3.org/1999/xlink">
    <!-- Generator: Sketch 55.2 (78181) - https://sketchapp.com -->
    <title>Fill 25</title>
    <desc>Created with Sketch.</desc>
    <g id="WIREFRAME" stroke="none" stroke-width="1" fill="none" fill-rule="evenodd">
        <g id="Desktop-HD-Copy" transform="translate(-303.000000, -8344.000000)" fill="#C9A899">
            <g id="Group-4-Copy-2" transform="translate(-2.000000, 8297.000000)">
                <g id="Group-4-Copy">
                    <g id="Group-Copy-3" transform="translate(216.000000, 44.000000)">
                        <path d="M99.3155,16.3567178 L99.3146875,8.76667912 L106.339562,12.5747833 L99.3155,16.3567178 Z M114.74,7.45144386 C114.74,7.45144386 114.485688,5.59002297 113.7065,4.77032244 C112.717688,3.69399063 111.609438,3.68892554 111.101625,3.62645608 C107.46325,3.35294118 102.005688,3.35294118 102.005688,3.35294118 L101.994313,3.35294118 C101.994313,3.35294118 96.53675,3.35294118 92.898375,3.62645608 C92.38975,3.68892554 91.2823125,3.69399063 90.2926875,4.77032244 C89.5135,5.59002297 89.26,7.45144386 89.26,7.45144386 C89.26,7.45144386 89,9.63787475 89,11.8234615 L89,13.8731349 C89,16.0595658 89.26,18.2451525 89.26,18.2451525 C89.26,18.2451525 89.5135,20.1065734 90.2926875,20.9262739 C91.2823125,22.0026057 92.5815,21.9688385 93.16,22.0811146 C95.24,22.2887834 102,22.3529412 102,22.3529412 C102,22.3529412 107.46325,22.3444994 111.101625,22.0709845 C111.609438,22.0076708 112.717688,22.0026057 113.7065,20.9262739 C114.485688,20.1065734 114.74,18.2451525 114.74,18.2451525 C114.74,18.2451525 115,16.0595658 115,13.8731349 L115,11.8234615 C115,9.63787475 114.74,7.45144386 114.74,7.45144386 L114.74,7.45144386 Z" id="Fill-25"></path>
                    </g>
                </g>
            </g>
        </g>
    </g>
</svg>